<?xml version="1.0" encoding="UTF-8" standalone="no"?>
<!-- Created with Inkscape (http://www.inkscape.org/) -->
<svg
   xmlns:svg="http://www.w3.org/2000/svg"
   xmlns="http://www.w3.org/2000/svg"
   version="1.0"
   width="900"
   height="600"
   id="svg2">
  <defs
     id="defs5" />
  <rect
     width="900"
     height="600"
     x="0"
     y="0"
     id="rect2598"
     style="fill:#ffffff;stroke:none" />
  <path
     d="M 303.875,113 L 303.875,135.40625 L 258,117.3125 L 258,213.5625 L 295,228.15625 L 295,249.375 L 258,234.78125 L 258,331.03125 L 322,356.25 L 322,377.46875 L 395,406.21875 L 395,348.9375 L 440,331.21875 L 440,234.90625 L 404,249.0625 L 404,227.84375 L 440,213.6875 L 440,117.28125 L 394,135.40625 L 394,113 L 348.875,131.15625 L 303.875,113 z M 505,113 L 505,135.40625 L 459,117.28125 L 459,213.28125 L 496,227.84375 L 496,249.0625 L 459,234.5 L 459,330.8125 L 505,348.9375 L 505,406.21875 L 578,377.46875 L 578,356.25 L 642,331.03125 L 642,234.78125 L 605,249.375 L 605,228.15625 L 642,213.5625 L 642,117.28125 L 596,135.40625 L 596,113 L 550.5625,131.15625 L 505,113 z M 303,169.34375 L 340,183.90625 L 340,170 L 358,170 L 358,184.03125 L 395.25,169.34375 L 395.25,190.5625 L 358,205.25 L 358,301.40625 L 395.25,286.71875 L 395.25,307.9375 L 358,322.625 L 358,350 L 340,344 L 340,322.5 L 303,307.9375 L 303,286.71875 L 340,301.28125 L 340,205.125 L 303,190.5625 L 303,169.34375 z M 504.5,169.34375 L 541.75,184.03125 L 541.75,170 L 559.75,170 L 559.75,183.90625 L 596.75,169.34375 L 596.75,190.5625 L 559.75,205.125 L 559.75,301.28125 L 596.75,286.71875 L 596.75,307.9375 L 559.75,322.5 L 559.75,344 L 541.75,350 L 541.75,322.625 L 504.5,307.9375 L 504.5,286.71875 L 541.75,301.40625 L 541.75,205.25 L 504.5,190.5625 L 504.5,169.34375 z M 450,348.9375 L 413,363.0625 L 413,434.53125 L 304,391.59375 L 304,370.375 L 258,352.25 L 258,434 L 450,509.65625 L 642,434 L 642,352.25 L 596,370.375 L 596,391.59375 L 487,434.53125 L 487,363.0625 L 450,348.9375 z"
     id="rect2386"
     style="fill:#6b8e23;stroke:none" />
</svg>
